<svg width="25" height="24" viewBox="0 0 25 24" fill="none" xmlns="http://www.w3.org/2000/svg">
<g clip-path="url(#clip0_82_12)">
<mask id="mask0_82_12" style="mask-type:luminance" maskUnits="userSpaceOnUse" x="0" y="0" width="25" height="24">
<path d="M24.5 0H0.5V24H24.5V0Z" fill="white"/>
</mask>
<g mask="url(#mask0_82_12)">
<path d="M2.568 5.482L11.443 14.358C11.7056 14.6207 12.0562 14.7767 12.4272 14.7957C12.7981 14.8148 13.1629 14.6955 13.451 14.4611L13.565 14.358L22.434 5.488C22.463 5.598 22.482 5.71 22.492 5.825L22.5 6V18C22.5002 18.5045 22.3096 18.9905 21.9665 19.3605C21.6234 19.7305 21.1531 19.9572 20.65 19.9951L20.5 20H4.5C3.99543 20.0001 3.50943 19.8096 3.13945 19.4665C2.76947 19.1235 2.54285 18.6532 2.505 18.15L2.5 18V6C2.5 5.88 2.50999 5.764 2.53 5.65L2.568 5.482ZM20.5 4C20.621 4 20.74 4.01 20.855 4.031L21.0251 4.07L12.505 12.59L3.982 4.068C4.092 4.038 4.206 4.018 4.32199 4.008L4.5 4H20.5Z" fill="#051A2F"/>
</g>
</g>
<defs>
<clipPath id="clip0_82_12">
<rect width="24" height="24" fill="white" transform="translate(0.5)"/>
</clipPath>
</defs>
</svg>
