<svg width="67" height="68" viewBox="0 0 67 68" fill="none" xmlns="http://www.w3.org/2000/svg">
<g clip-path="url(#clip0_97_8)">
<path d="M30.1389 2.6391C31.7959 0.351096 35.2039 0.351096 36.8609 2.6391C37.475 3.48632 38.3864 4.07036 39.4127 4.27433C40.439 4.47829 41.5045 4.28713 42.3959 3.7391C44.8029 2.2611 47.9508 3.5651 48.6068 6.3121C48.8499 7.3298 49.4682 8.21819 50.3382 8.79948C51.2082 9.38077 52.2656 9.61207 53.2989 9.4471C56.0889 9.0021 58.4979 11.4121 58.0529 14.2011C57.8879 15.2343 58.1192 16.2917 58.7005 17.1617C59.2818 18.0317 60.1701 18.6501 61.1879 18.8931C63.9349 19.5491 65.2389 22.6981 63.7609 25.1041C63.2128 25.9955 63.0217 27.061 63.2256 28.0873C63.4296 29.1136 64.0136 30.025 64.8609 30.6391C67.1489 32.2961 67.1489 35.7041 64.8609 37.3611C64.0136 37.9752 63.4296 38.8866 63.2256 39.9129C63.0217 40.9392 63.2128 42.0047 63.7609 42.8961C65.2389 45.3031 63.9349 48.4511 61.1879 49.1071C60.1701 49.3501 59.2818 49.9685 58.7005 50.8385C58.1192 51.7085 57.8879 52.7659 58.0529 53.7991C58.4979 56.5891 56.0879 58.9981 53.2989 58.5531C52.2656 58.3881 51.2082 58.6194 50.3382 59.2007C49.4682 59.782 48.8499 60.6704 48.6068 61.6881C47.9508 64.4351 44.8029 65.7391 42.3959 64.2611C41.5045 63.7131 40.439 63.5219 39.4127 63.7259C38.3864 63.9298 37.475 64.5139 36.8609 65.3611C35.2039 67.6491 31.7959 67.6491 30.1389 65.3611C29.5248 64.5139 28.6133 63.9298 27.587 63.7259C26.5607 63.5219 25.4952 63.7131 24.6039 64.2611C22.1979 65.7391 19.0489 64.4351 18.3929 61.6881C18.1498 60.6704 17.5315 59.782 16.6615 59.2007C15.7915 58.6194 14.7341 58.3881 13.7009 58.5531C10.9109 58.9981 8.50185 56.5881 8.94685 53.7991C9.11183 52.7659 8.88053 51.7085 8.29924 50.8385C7.71795 49.9685 6.82956 49.3501 5.81185 49.1071C3.06485 48.4511 1.76085 45.3031 3.23885 42.8961C3.78688 42.0047 3.97805 40.9392 3.77408 39.9129C3.57012 38.8866 2.98608 37.9752 2.13885 37.3611C-0.149148 35.7041 -0.149148 32.2961 2.13885 30.6391C2.98608 30.025 3.57012 29.1136 3.77408 28.0873C3.97805 27.061 3.78688 25.9955 3.23885 25.1041C1.76085 22.6981 3.06485 19.5491 5.81185 18.8931C6.82956 18.6501 7.71795 18.0317 8.29924 17.1617C8.88053 16.2917 9.11183 15.2343 8.94685 14.2011C8.50185 11.4111 10.9119 9.0021 13.7009 9.4471C14.7341 9.61207 15.7915 9.38077 16.6615 8.79948C17.5315 8.21819 18.1498 7.3298 18.3929 6.3121C19.0489 3.5651 22.1979 2.2611 24.6039 3.7391C25.4952 4.28713 26.5607 4.47829 27.587 4.27433C28.6133 4.07036 29.5248 3.48632 30.1389 2.6391Z" fill="#FF4F3F"/>
</g>
<defs>
<clipPath id="clip0_97_8">
<rect width="67" height="68" fill="white"/>
</clipPath>
</defs>
</svg>
