<svg width="102" height="102" viewBox="0 0 102 102" fill="none" xmlns="http://www.w3.org/2000/svg">
<g clip-path="url(#clip0_105_2)">
<path fill-rule="evenodd" clip-rule="evenodd" d="M96.36 51C98.2652 51.0016 100.162 50.7483 102 50.247C100.544 49.9406 99.0606 49.7864 97.573 49.787H72.346C68.3342 49.7935 64.4026 48.6639 61.006 46.529C61.747 42.1777 63.8249 38.1652 66.951 35.049L83.074 18.926C84.4222 17.58 85.5845 16.0599 86.53 14.406C85.2836 15.2183 84.1254 16.1584 83.074 17.211L65.236 35.049C62.4039 37.8903 58.8252 39.8717 54.914 40.764C52.3606 37.1625 50.9925 32.8549 51 28.44V5.64002C51 3.68702 50.738 1.79602 50.247 -0.000976562C49.9405 1.45474 49.7863 2.93839 49.787 4.42602V29.653C49.787 33.82 48.593 37.708 46.529 40.993C42.1777 40.2519 38.1653 38.174 35.049 35.048L18.926 18.926C17.5801 17.5777 16.06 16.4154 14.406 15.47C15.2185 16.7163 16.1586 17.8745 17.211 18.926L35.049 36.764C37.8903 39.5961 39.8717 43.1748 40.764 47.086C37.1624 49.6393 32.8549 51.0074 28.44 51H5.64C3.73483 50.9984 1.83801 51.2516 0 51.753C1.428 52.054 2.91 52.213 4.427 52.213H29.654C33.821 52.213 37.709 53.407 40.994 55.471C40.2527 59.8222 38.1749 63.8347 35.049 66.951L18.926 83.074C17.5776 84.4202 16.4153 85.9407 15.47 87.595C16.7161 86.7823 17.8743 85.8423 18.926 84.79L36.764 66.95C39.5962 64.1088 43.1748 62.1274 47.086 61.235C49.6394 64.837 51.0074 69.1448 51 73.56V96.36C51 98.313 51.262 100.204 51.753 102.001C52.054 100.572 52.213 99.091 52.213 97.574V72.346C52.213 68.179 53.407 64.291 55.471 61.006C59.675 61.724 63.706 63.706 66.951 66.951L83.074 83.074C84.4202 84.4224 85.9407 85.5847 87.595 86.53C86.7825 85.2838 85.8424 84.1255 84.79 83.074L66.95 65.236C64.109 62.4039 62.1279 58.8252 61.236 54.914C64.8373 52.3607 69.1444 50.9927 73.559 51H96.36Z" fill="#FF4F3F"/>
</g>
<defs>
<clipPath id="clip0_105_2">
<rect width="102" height="102" fill="white"/>
</clipPath>
</defs>
</svg>
